HIERARCHY
ROOT Hips
{
	OFFSET	0.00	0.00	0.00
	CHANNELS 6 Xposition Yposition Zposition Zrotation Xrotation Yrotation
	JOINT LeftUpLeg
	{
		OFFSET	 0.126116	-0.014019	-0.065224
		CHANNELS 3 Zrotation Xrotation Yrotation
		JOINT LeftLeg
		{
			OFFSET	 0.000000	 0.000000	 0.569914
			CHANNELS 3 Zrotation Xrotation Yrotation
			JOINT LeftFoot
			{
				OFFSET	 0.000000	 0.000000	 0.544423
				CHANNELS 3 Zrotation Xrotation Yrotation
				JOINT LeftToeBase
				{
					OFFSET	 0.000000	 0.000000	 0.207117
					CHANNELS 3 Zrotation Xrotation Yrotation
					End Site
					{
						OFFSET	 0.000000	 0.000000	 0.207117
					}
				}
			}
		}
	}
	JOINT RightUpLeg
	{
		OFFSET	-0.124023	-0.008373	-0.065224
		CHANNELS 3 Zrotation Xrotation Yrotation
		JOINT RightLeg
		{
			OFFSET	 0.000000	 0.000000	 0.570047
			CHANNELS 3 Zrotation Xrotation Yrotation
			JOINT RightFoot
			{
				OFFSET	 0.000000	 0.000000	 0.544354
				CHANNELS 3 Zrotation Xrotation Yrotation
				JOINT RightToeBase
				{
					OFFSET	 0.000000	 0.000000	 0.207540
					CHANNELS 3 Zrotation Xrotation Yrotation
					End Site
					{
						OFFSET	 0.000000	 0.000000	 0.207540
					}
				}
			}
		}
	}
	JOINT Spine
	{
		OFFSET	 0.000184	-0.007763	 0.117403
		CHANNELS 3 Zrotation Xrotation Yrotation
		JOINT Spine1
		{
			OFFSET	 0.000000	 0.000000	 0.137269
			CHANNELS 3 Zrotation Xrotation Yrotation
			JOINT Spine2
			{
				OFFSET	 0.000000	 0.000000	 0.156879
				CHANNELS 3 Zrotation Xrotation Yrotation
				JOINT LeftShoulder
				{
					OFFSET	 0.080501	-0.002496	 0.160144
					CHANNELS 3 Zrotation Xrotation Yrotation
					JOINT LeftArm
					{
						OFFSET	 0.000000	 0.000000	 0.164363
						CHANNELS 3 Zrotation Xrotation Yrotation
						JOINT LeftForeArm
						{
							OFFSET	 0.000000	 0.000000	 0.364576
							CHANNELS 3 Zrotation Xrotation Yrotation
							JOINT LeftHand
							{
								OFFSET	 0.000000	 0.000000	 0.360812
								CHANNELS 3 Zrotation Xrotation Yrotation
								JOINT LeftHandIndex1
								{
									OFFSET	 0.000000	 0.000000	 0.086006
									CHANNELS 3 Zrotation Xrotation Yrotation
									JOINT LeftHandIndex2
									{
										OFFSET	 0.000000	 0.000000	 0.047236
										CHANNELS 3 Zrotation Xrotation Yrotation
										JOINT LeftHandIndex3
										{
											OFFSET	-0.004284	-0.000551	 0.038166
											CHANNELS 3 Zrotation Xrotation Yrotation
											End Site
											{
												OFFSET	-0.004284	-0.000551	 0.038166
											}
										}
									}
								}
							}
						}
					}
				}
				JOINT Neck
				{
					OFFSET	 0.000000	 0.000000	 0.176489
					CHANNELS 3 Zrotation Xrotation Yrotation
					JOINT Head
					{
						OFFSET	 0.000000	-0.001747	 0.077940
						CHANNELS 3 Zrotation Xrotation Yrotation
						End Site
						{
							OFFSET	 0.000000	-0.001747	 0.077940
						}
					}
				}
				JOINT RightShoulder
				{
					OFFSET	-0.080363	 0.000306	 0.159706
					CHANNELS 3 Zrotation Xrotation Yrotation
					JOINT RightArm
					{
						OFFSET	 0.000000	 0.000000	 0.164196
						CHANNELS 3 Zrotation Xrotation Yrotation
						JOINT RightForeArm
						{
							OFFSET	 0.000000	 0.000000	 0.365611
							CHANNELS 3 Zrotation Xrotation Yrotation
							JOINT RightHand
							{
								OFFSET	 0.000000	 0.000000	 0.360648
								CHANNELS 3 Zrotation Xrotation Yrotation
								JOINT RightHandIndex1
								{
									OFFSET	 0.000000	 0.000000	 0.069977
									CHANNELS 3 Zrotation Xrotation Yrotation
									JOINT RightHandIndex2
									{
										OFFSET	 0.000000	 0.000000	 0.052305
										CHANNELS 3 Zrotation Xrotation Yrotation
										JOINT RightHandIndex3
										{
											OFFSET	 0.009002	-0.000782	 0.042196
											CHANNELS 3 Zrotation Xrotation Yrotation
											End Site
											{
												OFFSET	 0.009002	-0.000782	 0.042196
											}
										}
									}
								}
							}
						}
					}
				}
			}
		}
	}
}
MOTION
Frames:    6
Frame Time: 0.03333334
 3.575373	 0.001099	 0.745972	 81.812550	-2.158183	-1.210770	 7.317230	 20.766930	-176.870300	-3.549778	-11.630660	 1.487266	 3.708658	 84.403430	-0.305065	-2.297742	 40.029360	-0.276414	 5.139229	-35.801760	-177.717000	 0.713101	-42.067520	 4.758929	 124.119300	 89.777950	-118.470400	 2.369437	 31.347420	 0.065375	 14.715300	 3.539342	 2.316248	-1.997675	-1.355598	 0.724176	-2.191687	-3.780298	-0.740723	-91.776180	 78.527400	-180.000000	 35.760770	 60.521000	-53.942690	 9.758739	-28.636400	-49.568430	 12.024620	-57.327840	 3.864464	-3.812334	 37.924440	-2.927599	-2.450526	 36.184240	 0.754587	-1.378229	 35.397820	-2.634230	 1.223518	 2.175166	-4.960930	 0.757037	-9.194354	 3.496598	 89.782100	 78.203870	-180.000000	-37.666160	 72.219670	 35.086530	-24.175140	-25.112650	 34.043500	-15.491420	-58.829710	 3.845670	 6.437017	 35.671460	-0.771858	 2.830251	 35.756010	-7.813440	-2.350882	 35.473990	 5.254307
 3.627741	-0.008348	 0.744109	 82.300950	-1.903763	-1.315558	 7.512886	 22.977280	-177.317400	-3.310381	-11.620840	 1.562559	 4.426399	 84.262120	-0.660924	-2.259129	 43.083920	-0.361635	 5.168173	-36.069230	-177.435600	-0.220986	-38.296720	 3.711722	 152.650800	 89.393810	-147.455900	 2.361092	 32.683600	 0.095892	 11.137110	 3.372581	 2.077721	-0.989289	-1.498567	 0.667371	-0.887584	-3.938562	-0.666881	-91.776180	 78.527420	-180.000000	 36.621250	 60.686120	-54.946710	 10.225320	-30.616360	-50.795570	 12.761710	-55.839950	 4.288137	-3.812334	 37.924440	-2.927599	-2.450526	 36.184240	 0.754587	-1.378229	 35.397820	-2.634230	 1.233000	 2.110364	-5.009659	 1.118598	-9.262337	 4.091301	 89.782090	 78.203830	-180.000000	-36.410070	 72.900510	 33.662370	-25.644030	-26.068370	 33.476470	-17.166190	-57.430920	 3.049779	 6.437017	 35.671460	-0.771858	 2.830251	 35.756010	-7.813440	-2.350882	 35.473990	 5.254307
 3.686479	-0.019997	 0.742104	 82.839650	-1.999820	-1.324078	 7.882285	 25.452400	-178.315500	-2.641242	-11.601100	 1.704235	 5.312081	 82.965300	-0.789743	-2.213076	 46.069070	-0.452212	 4.888980	-35.647420	-177.515100	 0.393281	-37.945300	 3.925590	 142.960300	 89.551510	-137.424800	 2.365294	 32.029450	 0.080871	 7.291771	 3.294014	 1.883259	 0.040550	-1.557923	 0.533589	 0.505223	-3.921792	-0.612871	-91.776180	 78.527420	-180.000000	 37.948060	 61.319920	-55.780290	 11.050010	-32.126800	-50.954530	 13.342670	-53.507900	 4.348233	-3.812334	 37.924440	-2.927599	-2.450526	 36.184240	 0.754587	-1.378229	 35.397820	-2.634230	 1.300442	 2.108259	-5.053348	 1.524686	-9.285717	 4.614532	 89.782120	 78.203870	 180.000000	-35.418690	 73.420780	 32.570230	-27.242730	-26.832410	 32.786760	-18.794110	-55.171330	 2.506868	 6.437017	 35.671460	-0.771858	 2.830251	 35.756010	-7.813440	-2.350882	 35.473990	 5.254307
 3.747223	-0.033136	 0.740147	 83.385070	-2.131578	-1.281530	 8.375987	 27.881870	-179.692400	-1.798951	-11.577920	 1.857038	 5.860091	 80.234490	-0.421449	-2.161610	 48.834880	-0.544107	 4.759606	-34.381810	-177.808300	 1.507139	-39.608020	 4.816365	 31.617260	 89.601880	-25.366190	 2.377371	 29.911010	 0.033280	 3.439105	 3.149525	 1.825361	 0.997034	-1.563337	 0.359021	 1.886554	-3.698674	-0.611005	-91.776180	 78.527400	-180.000000	 39.528930	 62.259000	-56.125480	 12.210940	-33.038370	-50.203530	 13.664440	-50.516950	 4.066690	-3.812334	 37.924440	-2.927599	-2.450526	 36.184240	 0.754587	-1.378229	 35.397820	-2.634230	 1.436129	 2.407221	-5.127232	 1.946715	-9.420096	 5.058819	 89.782120	 78.203870	 180.000000	-34.464920	 73.790700	 31.472300	-28.690150	-27.434130	 32.171620	-20.173420	-52.257910	 2.271901	 6.437017	 35.671460	-0.771858	 2.830251	 35.756010	-7.813440	-2.350882	 35.473990	 5.254307
 3.812410	-0.047924	 0.738826	 84.135060	-2.247253	-1.153351	 8.981005	 30.273610	 178.523300	-1.000372	-11.560220	 1.965770	 5.699304	 75.403560	 0.631658	-2.111196	 51.131790	-0.627543	 4.036611	-32.767130	-178.552200	 3.478398	-42.083030	 6.119177	 5.005720	 88.273090	 2.096886	 2.382957	 28.766410	 0.008191	-0.711271	 2.886090	 1.634435	 1.883260	-1.593455	 0.190400	 3.295900	-3.440917	-0.674171	-91.776180	 78.527400	-180.000000	 41.277750	 63.553580	-55.926270	 14.024850	-33.457670	-48.378740	 14.081940	-46.792240	 3.521884	-3.812334	 37.924440	-2.927599	-2.450526	 36.184240	 0.754587	-1.378229	 35.397820	-2.634230	 1.576141	 2.823646	-5.101870	 2.358258	-9.461926	 5.301913	 89.782120	 78.203870	 180.000000	-32.885720	 74.071940	 29.455510	-29.858000	-28.000180	 31.740010	-21.282860	-48.564560	 2.320421	 6.437017	 35.671460	-0.771858	 2.830251	 35.756010	-7.813440	-2.350882	 35.473990	 5.254307
 3.876427	-0.062133	 0.739842	 85.095310	-2.472552	-1.028433	 9.631033	 32.399560	 176.877900	-1.310939	-11.142780	 1.834264	 5.056727	 67.904040	 1.331287	-2.112612	 51.071980	-0.625269	 2.862609	-31.068310	-179.133100	 4.666122	-44.564380	 6.652998	 3.523098	 85.713530	 3.394867	 2.390834	 26.872250	-0.032485	-4.776535	 2.658657	 1.319647	 2.710126	-1.537912	 0.075083	 4.504210	-3.268268	-0.703041	-91.776180	 78.527400	-180.000000	 43.122630	 65.076530	-55.835320	 16.408020	-33.297580	-45.503020	 14.771930	-42.550060	 2.775235	-3.812334	 37.924440	-2.927599	-2.450526	 36.184240	 0.754587	-1.378229	 35.397820	-2.634230	 1.664346	 3.053782	-4.979552	 2.709909	-9.297635	 5.321546	 89.782100	 78.203850	-180.000000	-31.988870	 74.184980	 28.317220	-30.613240	-28.520490	 31.569170	-21.994850	-44.360390	 2.616410	 6.437017	 35.671460	-0.771858	 2.830251	 35.756010	-7.813440	-2.350882	 35.473990	 5.254307
